<mxfile host="app.diagrams.net" modified="2023-12-01T20:09:58.467Z" agent="Mozilla/5.0 (Windows NT 10.0; Win64; x64; rv:120.0) Gecko/20100101 Firefox/120.0" etag="qGbEFPIO5GxclOq7azE9" version="22.1.5" type="device">
  <diagram name="Page-1" id="58cdce13-f638-feb5-8d6f-7d28b1aa9fa0">
    <mxGraphModel dx="1185" dy="469" grid="1" gridSize="10" guides="1" tooltips="1" connect="1" arrows="1" fold="1" page="1" pageScale="1" pageWidth="1100" pageHeight="850" background="none" math="0" shadow="0">
      <root>
        <mxCell id="0" />
        <mxCell id="1" parent="0" />
        <mxCell id="382b91b5511bd0f7-1" value="" style="ellipse;html=1;shape=startState;fillColor=#000000;strokeColor=#ff0000;rounded=1;shadow=0;comic=0;labelBackgroundColor=none;fontFamily=Roboto;fontSize=12;fontColor=#000000;align=center;direction=south;fontSource=https%3A%2F%2Ffonts.googleapis.com%2Fcss%3Ffamily%3DRoboto;" parent="1" vertex="1">
          <mxGeometry x="38" y="505" width="30" height="30" as="geometry" />
        </mxCell>
        <mxCell id="382b91b5511bd0f7-6" value="Pedido em anÃ¡lise" style="rounded=1;whiteSpace=wrap;html=1;arcSize=24;fillColor=#ffffc0;strokeColor=#ff0000;shadow=0;comic=0;labelBackgroundColor=none;fontFamily=Roboto;fontSize=12;fontColor=#000000;align=center;fontSource=https%3A%2F%2Ffonts.googleapis.com%2Fcss%3Ffamily%3DRoboto;" parent="1" vertex="1">
          <mxGeometry x="108" y="490" width="90" height="60" as="geometry" />
        </mxCell>
        <mxCell id="jDJydcHiFQ1xSRQNfKu3-3" value="" style="rhombus;whiteSpace=wrap;html=1;fontFamily=Roboto;fontSource=https%3A%2F%2Ffonts.googleapis.com%2Fcss%3Ffamily%3DRoboto;" vertex="1" parent="1">
          <mxGeometry x="263" y="505" width="30" height="30" as="geometry" />
        </mxCell>
        <mxCell id="jDJydcHiFQ1xSRQNfKu3-5" value="Pedido aceito?" style="text;html=1;align=center;verticalAlign=middle;resizable=0;points=[];autosize=1;strokeColor=none;fillColor=none;fontFamily=Roboto;fontSource=https%3A%2F%2Ffonts.googleapis.com%2Fcss%3Ffamily%3DRoboto;" vertex="1" parent="1">
          <mxGeometry x="223" y="535" width="110" height="30" as="geometry" />
        </mxCell>
        <mxCell id="jDJydcHiFQ1xSRQNfKu3-6" value="Pedido em andamento" style="rounded=1;whiteSpace=wrap;html=1;arcSize=24;fillColor=#ffffc0;strokeColor=#ff0000;shadow=0;comic=0;labelBackgroundColor=none;fontFamily=Roboto;fontSize=12;fontColor=#000000;align=center;fontSource=https%3A%2F%2Ffonts.googleapis.com%2Fcss%3Ffamily%3DRoboto;" vertex="1" parent="1">
          <mxGeometry x="378" y="490" width="100" height="60" as="geometry" />
        </mxCell>
        <mxCell id="jDJydcHiFQ1xSRQNfKu3-7" style="edgeStyle=orthogonalEdgeStyle;html=1;labelBackgroundColor=none;endArrow=open;endSize=8;strokeColor=#ff0000;fontFamily=Roboto;fontSize=12;align=left;exitX=1;exitY=0.5;exitDx=0;exitDy=0;entryX=0;entryY=0.5;entryDx=0;entryDy=0;fontSource=https%3A%2F%2Ffonts.googleapis.com%2Fcss%3Ffamily%3DRoboto;" edge="1" parent="1" source="jDJydcHiFQ1xSRQNfKu3-3" target="jDJydcHiFQ1xSRQNfKu3-6">
          <mxGeometry relative="1" as="geometry">
            <mxPoint x="358" y="550" as="sourcePoint" />
            <mxPoint x="438" y="550" as="targetPoint" />
          </mxGeometry>
        </mxCell>
        <mxCell id="jDJydcHiFQ1xSRQNfKu3-8" value="sim" style="edgeLabel;html=1;align=center;verticalAlign=middle;resizable=0;points=[];fontFamily=Roboto;fontSource=https%3A%2F%2Ffonts.googleapis.com%2Fcss%3Ffamily%3DRoboto;" vertex="1" connectable="0" parent="jDJydcHiFQ1xSRQNfKu3-7">
          <mxGeometry x="-0.1289" y="-1" relative="1" as="geometry">
            <mxPoint y="-11" as="offset" />
          </mxGeometry>
        </mxCell>
        <mxCell id="jDJydcHiFQ1xSRQNfKu3-9" style="edgeStyle=orthogonalEdgeStyle;html=1;labelBackgroundColor=none;endArrow=open;endSize=8;strokeColor=#ff0000;fontFamily=Roboto;fontSize=12;align=left;entryX=0;entryY=0.5;entryDx=0;entryDy=0;fontSource=https%3A%2F%2Ffonts.googleapis.com%2Fcss%3Ffamily%3DRoboto;exitX=1;exitY=0.5;exitDx=0;exitDy=0;" edge="1" parent="1" source="382b91b5511bd0f7-6" target="jDJydcHiFQ1xSRQNfKu3-3">
          <mxGeometry relative="1" as="geometry">
            <mxPoint x="188" y="520" as="sourcePoint" />
            <mxPoint x="248" y="520" as="targetPoint" />
          </mxGeometry>
        </mxCell>
        <mxCell id="jDJydcHiFQ1xSRQNfKu3-11" value="Pedido recusado" style="rounded=1;whiteSpace=wrap;html=1;arcSize=24;fillColor=#ffffc0;strokeColor=#ff0000;shadow=0;comic=0;labelBackgroundColor=none;fontFamily=Roboto;fontSize=12;fontColor=#000000;align=center;fontSource=https%3A%2F%2Ffonts.googleapis.com%2Fcss%3Ffamily%3DRoboto;" vertex="1" parent="1">
          <mxGeometry x="233" y="355" width="90" height="60" as="geometry" />
        </mxCell>
        <mxCell id="jDJydcHiFQ1xSRQNfKu3-15" value="Pedido em transporte" style="rounded=1;whiteSpace=wrap;html=1;arcSize=24;fillColor=#ffffc0;strokeColor=#ff0000;shadow=0;comic=0;labelBackgroundColor=none;fontFamily=Roboto;fontSize=12;fontColor=#000000;align=center;fontSource=https%3A%2F%2Ffonts.googleapis.com%2Fcss%3Ffamily%3DRoboto;" vertex="1" parent="1">
          <mxGeometry x="638" y="490" width="100" height="60" as="geometry" />
        </mxCell>
        <mxCell id="jDJydcHiFQ1xSRQNfKu3-16" style="edgeStyle=orthogonalEdgeStyle;html=1;labelBackgroundColor=none;endArrow=open;endSize=8;strokeColor=#ff0000;fontFamily=Roboto;fontSize=12;align=left;exitX=1;exitY=0.5;exitDx=0;exitDy=0;entryX=0;entryY=0.5;entryDx=0;entryDy=0;fontSource=https%3A%2F%2Ffonts.googleapis.com%2Fcss%3Ffamily%3DRoboto;" edge="1" parent="1" target="jDJydcHiFQ1xSRQNfKu3-15" source="jDJydcHiFQ1xSRQNfKu3-6">
          <mxGeometry relative="1" as="geometry">
            <mxPoint x="508" y="520" as="sourcePoint" />
            <mxPoint x="653" y="550" as="targetPoint" />
          </mxGeometry>
        </mxCell>
        <mxCell id="jDJydcHiFQ1xSRQNfKu3-17" value="status := &quot;Em transporte&quot;" style="edgeLabel;html=1;align=center;verticalAlign=middle;resizable=0;points=[];fontFamily=Roboto;fontSource=https%3A%2F%2Ffonts.googleapis.com%2Fcss%3Ffamily%3DRoboto;" vertex="1" connectable="0" parent="jDJydcHiFQ1xSRQNfKu3-16">
          <mxGeometry x="-0.1289" y="-1" relative="1" as="geometry">
            <mxPoint x="9" y="-11" as="offset" />
          </mxGeometry>
        </mxCell>
        <mxCell id="jDJydcHiFQ1xSRQNfKu3-22" value="Pedido entregue" style="rounded=1;whiteSpace=wrap;html=1;arcSize=24;fillColor=#ffffc0;strokeColor=#ff0000;shadow=0;comic=0;labelBackgroundColor=none;fontFamily=Roboto;fontSize=12;fontColor=#000000;align=center;fontSource=https%3A%2F%2Ffonts.googleapis.com%2Fcss%3Ffamily%3DRoboto;" vertex="1" parent="1">
          <mxGeometry x="860" y="490" width="120" height="60" as="geometry" />
        </mxCell>
        <mxCell id="jDJydcHiFQ1xSRQNfKu3-23" style="edgeStyle=orthogonalEdgeStyle;html=1;labelBackgroundColor=none;endArrow=open;endSize=8;strokeColor=#ff0000;fontFamily=Roboto;fontSize=12;align=left;exitX=1;exitY=0.5;exitDx=0;exitDy=0;entryX=0;entryY=0.5;entryDx=0;entryDy=0;fontSource=https%3A%2F%2Ffonts.googleapis.com%2Fcss%3Ffamily%3DRoboto;" edge="1" parent="1" target="jDJydcHiFQ1xSRQNfKu3-22" source="jDJydcHiFQ1xSRQNfKu3-15">
          <mxGeometry relative="1" as="geometry">
            <mxPoint x="748" y="520" as="sourcePoint" />
            <mxPoint x="903" y="550" as="targetPoint" />
          </mxGeometry>
        </mxCell>
        <mxCell id="jDJydcHiFQ1xSRQNfKu3-24" value="status := &quot;Entregue&quot;" style="edgeLabel;html=1;align=center;verticalAlign=middle;resizable=0;points=[];fontFamily=Roboto;fontSource=https%3A%2F%2Ffonts.googleapis.com%2Fcss%3Ffamily%3DRoboto;" vertex="1" connectable="0" parent="jDJydcHiFQ1xSRQNfKu3-23">
          <mxGeometry x="-0.1289" y="-1" relative="1" as="geometry">
            <mxPoint x="9" y="-11" as="offset" />
          </mxGeometry>
        </mxCell>
        <mxCell id="jDJydcHiFQ1xSRQNfKu3-25" value="Pedido cancelado" style="rounded=1;whiteSpace=wrap;html=1;arcSize=24;fillColor=#ffffc0;strokeColor=#ff0000;shadow=0;comic=0;labelBackgroundColor=none;fontFamily=Roboto;fontSize=12;fontColor=#000000;align=center;fontSource=https%3A%2F%2Ffonts.googleapis.com%2Fcss%3Ffamily%3DRoboto;" vertex="1" parent="1">
          <mxGeometry x="638" y="355" width="100" height="60" as="geometry" />
        </mxCell>
        <mxCell id="jDJydcHiFQ1xSRQNfKu3-26" style="edgeStyle=orthogonalEdgeStyle;html=1;labelBackgroundColor=none;endArrow=open;endSize=8;strokeColor=#ff0000;fontFamily=Roboto;fontSize=12;align=left;entryX=0;entryY=0.5;entryDx=0;entryDy=0;fontSource=https%3A%2F%2Ffonts.googleapis.com%2Fcss%3Ffamily%3DRoboto;exitX=0.5;exitY=0;exitDx=0;exitDy=0;" edge="1" parent="1" source="382b91b5511bd0f7-1" target="382b91b5511bd0f7-6">
          <mxGeometry relative="1" as="geometry">
            <mxPoint x="188" y="530" as="sourcePoint" />
            <mxPoint x="273" y="530" as="targetPoint" />
          </mxGeometry>
        </mxCell>
        <mxCell id="jDJydcHiFQ1xSRQNfKu3-27" style="edgeStyle=orthogonalEdgeStyle;html=1;labelBackgroundColor=none;endArrow=open;endSize=8;strokeColor=#ff0000;fontFamily=Roboto;fontSize=12;align=left;exitX=0.5;exitY=0;exitDx=0;exitDy=0;entryX=0;entryY=0.5;entryDx=0;entryDy=0;fontSource=https%3A%2F%2Ffonts.googleapis.com%2Fcss%3Ffamily%3DRoboto;" edge="1" parent="1" source="jDJydcHiFQ1xSRQNfKu3-6" target="jDJydcHiFQ1xSRQNfKu3-25">
          <mxGeometry relative="1" as="geometry">
            <mxPoint x="488" y="530" as="sourcePoint" />
            <mxPoint x="648" y="530" as="targetPoint" />
          </mxGeometry>
        </mxCell>
        <mxCell id="jDJydcHiFQ1xSRQNfKu3-28" value="cancelarPedido()" style="edgeLabel;html=1;align=center;verticalAlign=middle;resizable=0;points=[];fontFamily=Roboto;fontSource=https%3A%2F%2Ffonts.googleapis.com%2Fcss%3Ffamily%3DRoboto;" vertex="1" connectable="0" parent="jDJydcHiFQ1xSRQNfKu3-27">
          <mxGeometry x="-0.1289" y="-1" relative="1" as="geometry">
            <mxPoint x="51" y="-11" as="offset" />
          </mxGeometry>
        </mxCell>
        <mxCell id="jDJydcHiFQ1xSRQNfKu3-29" style="edgeStyle=orthogonalEdgeStyle;html=1;labelBackgroundColor=none;endArrow=open;endSize=8;strokeColor=#ff0000;fontFamily=Roboto;fontSize=12;align=left;entryX=0.5;entryY=1;entryDx=0;entryDy=0;fontSource=https%3A%2F%2Ffonts.googleapis.com%2Fcss%3Ffamily%3DRoboto;exitX=0.5;exitY=0;exitDx=0;exitDy=0;" edge="1" parent="1" source="jDJydcHiFQ1xSRQNfKu3-15" target="jDJydcHiFQ1xSRQNfKu3-25">
          <mxGeometry relative="1" as="geometry">
            <mxPoint x="598" y="664.48" as="sourcePoint" />
            <mxPoint x="798" y="579.48" as="targetPoint" />
          </mxGeometry>
        </mxCell>
        <mxCell id="jDJydcHiFQ1xSRQNfKu3-30" value="cancelarPedido()" style="edgeLabel;html=1;align=center;verticalAlign=middle;resizable=0;points=[];fontFamily=Roboto;fontSource=https%3A%2F%2Ffonts.googleapis.com%2Fcss%3Ffamily%3DRoboto;" vertex="1" connectable="0" parent="jDJydcHiFQ1xSRQNfKu3-29">
          <mxGeometry x="-0.1289" y="-1" relative="1" as="geometry">
            <mxPoint x="-1" y="-2" as="offset" />
          </mxGeometry>
        </mxCell>
        <mxCell id="jDJydcHiFQ1xSRQNfKu3-33" style="edgeStyle=orthogonalEdgeStyle;html=1;labelBackgroundColor=none;endArrow=open;endSize=8;strokeColor=#ff0000;fontFamily=Roboto;fontSize=12;align=left;exitX=0.5;exitY=0;exitDx=0;exitDy=0;entryX=0.5;entryY=1;entryDx=0;entryDy=0;fontSource=https%3A%2F%2Ffonts.googleapis.com%2Fcss%3Ffamily%3DRoboto;" edge="1" parent="1" source="jDJydcHiFQ1xSRQNfKu3-3" target="jDJydcHiFQ1xSRQNfKu3-11">
          <mxGeometry relative="1" as="geometry">
            <mxPoint x="303" y="530" as="sourcePoint" />
            <mxPoint x="388" y="530" as="targetPoint" />
          </mxGeometry>
        </mxCell>
        <mxCell id="jDJydcHiFQ1xSRQNfKu3-34" value="nÃ£o" style="edgeLabel;html=1;align=center;verticalAlign=middle;resizable=0;points=[];fontFamily=Roboto;fontSource=https%3A%2F%2Ffonts.googleapis.com%2Fcss%3Ffamily%3DRoboto;" vertex="1" connectable="0" parent="jDJydcHiFQ1xSRQNfKu3-33">
          <mxGeometry x="-0.1289" y="-1" relative="1" as="geometry">
            <mxPoint y="-11" as="offset" />
          </mxGeometry>
        </mxCell>
        <mxCell id="jDJydcHiFQ1xSRQNfKu3-35" value="" style="ellipse;html=1;shape=endState;fillColor=#000000;strokeColor=#ff0000;" vertex="1" parent="1">
          <mxGeometry x="1038" y="425" width="30" height="30" as="geometry" />
        </mxCell>
        <mxCell id="jDJydcHiFQ1xSRQNfKu3-41" style="edgeStyle=orthogonalEdgeStyle;html=1;labelBackgroundColor=none;endArrow=open;endSize=8;strokeColor=#ff0000;fontFamily=Roboto;fontSize=12;align=left;exitX=1;exitY=0.5;exitDx=0;exitDy=0;entryX=0.5;entryY=1;entryDx=0;entryDy=0;fontSource=https%3A%2F%2Ffonts.googleapis.com%2Fcss%3Ffamily%3DRoboto;" edge="1" parent="1" target="jDJydcHiFQ1xSRQNfKu3-35">
          <mxGeometry relative="1" as="geometry">
            <mxPoint x="988" y="519.76" as="sourcePoint" />
            <mxPoint x="1148" y="519.76" as="targetPoint" />
          </mxGeometry>
        </mxCell>
        <mxCell id="jDJydcHiFQ1xSRQNfKu3-43" style="edgeStyle=orthogonalEdgeStyle;html=1;labelBackgroundColor=none;endArrow=open;endSize=8;strokeColor=#ff0000;fontFamily=Roboto;fontSize=12;align=left;exitX=0.5;exitY=0;exitDx=0;exitDy=0;fontSource=https%3A%2F%2Ffonts.googleapis.com%2Fcss%3Ffamily%3DRoboto;entryX=0.5;entryY=0;entryDx=0;entryDy=0;" edge="1" parent="1" source="jDJydcHiFQ1xSRQNfKu3-11" target="jDJydcHiFQ1xSRQNfKu3-35">
          <mxGeometry relative="1" as="geometry">
            <mxPoint x="438" y="320" as="sourcePoint" />
            <mxPoint x="768" y="321" as="targetPoint" />
            <Array as="points">
              <mxPoint x="278" y="320" />
              <mxPoint x="1053" y="320" />
            </Array>
          </mxGeometry>
        </mxCell>
        <mxCell id="jDJydcHiFQ1xSRQNfKu3-48" style="edgeStyle=orthogonalEdgeStyle;html=1;labelBackgroundColor=none;endArrow=open;endSize=8;strokeColor=#ff0000;fontFamily=Roboto;fontSize=12;align=left;fontSource=https%3A%2F%2Ffonts.googleapis.com%2Fcss%3Ffamily%3DRoboto;exitX=1;exitY=0.5;exitDx=0;exitDy=0;" edge="1" parent="1" source="jDJydcHiFQ1xSRQNfKu3-25" target="jDJydcHiFQ1xSRQNfKu3-35">
          <mxGeometry relative="1" as="geometry">
            <mxPoint x="690" y="330" as="sourcePoint" />
            <mxPoint x="1058" y="425" as="targetPoint" />
            <Array as="points">
              <mxPoint x="738" y="380" />
              <mxPoint x="1053" y="380" />
            </Array>
          </mxGeometry>
        </mxCell>
        <mxCell id="jDJydcHiFQ1xSRQNfKu3-49" value="Aceitar Pedido" style="shape=umlFrame;whiteSpace=wrap;html=1;pointerEvents=0;width=95;height=30;" vertex="1" parent="1">
          <mxGeometry x="23" y="300" width="1055" height="275" as="geometry" />
        </mxCell>
      </root>
    </mxGraphModel>
  </diagram>
</mxfile>
